{"title":"Incorreggibili Ninfomani - Nymphos out of control","uid":6712106,"size":734023442,"categoryP":"porn","categoryS":"movies","magnet":"?xt=urn:btih:107f2a9405f8da0d3e8dcdafb7b1861175832434&amp;dn=Incorreggibili+Ninfomani+-+Nymphos+out+of+control&amp;tr=udp%3A%2F%2Ftracker.openbittorrent.com%3A80&amp;tr=udp%3A%2F%2Fopen.demonii.com%3A1337&amp;tr=udp%3A%2F%2Ftracker.coppersurfer.tk%3A6969&amp;tr=udp%3A%2F%2Fexodus.desync.com%3A6969","seeders":0,"leechers":3,"uploader":"silviuss","files":1,"time":1317393473,"description":"Incorreggibili Ninfomani - Incorrigible nymphos\n\nCover: &lt;a href=&quot;\nhttp://imagebb.org/view.php?filename=4801259031236_cover.jpg&quot; rel=&quot;nofollow&quot; target=&quot;_NEW&quot;&gt;\nhttp://imagebb.org/view.php?filename=4801259031236_cover.jpg&lt;/a&gt;\n\nPreview: &lt;a href=&quot;\nhttp://imagebb.org/view.php?filename=826Incorreggibili_Ninfoma.jpg&quot; rel=&quot;nofollow&quot; target=&quot;_NEW&quot;&gt;\nhttp://imagebb.org/view.php?filename=826Incorreggibili_Ninfoma.jpg&lt;/a&gt;\n\nInfo:\nComplete name                    : E:\\Torrents\\Active\\# 30\\Incorreggibili Ninfomani.avi\nFormat                           : DivX\nFormat/Info                      : Hack of AVI\nFile size                        : 700 MiB\nDuration                         : 1h 27mn\nOverall bit rate                 : 1 123 Kbps\n\nVideo\nID                               : 0\nFormat                           : MPEG-4 Visual\nFormat settings, BVOP            : 1\nFormat settings, QPel            : No\nFormat settings, GMC             : No warppoints\nFormat settings, Matrix          : Default (H.263)\nMuxing mode                      : Packed bitstream\nCodec ID                         : DX50\nCodec ID/Hint                    : DivX 5\nDuration                         : 1h 27mn\nBit rate                         : 985 Kbps\nWidth                            : 640 pixels\nHeight                           : 480 pixels\nDisplay aspect ratio             : 4:3\nFrame rate                       : 25.000 fps\nColor space                      : YUV\nChroma subsampling               : 4:2:0\nBit depth                        : 8 bits\nScan type                        : Progressive\nCompression mode                 : Lossy\nBits/(Pixel*Frame)               : 0.128\nStream size                      : 614 MiB (88%)\nTitle                            : Video \nWriting library                  : DivX 1670\n\nAudio\nID                               : 1\nFormat                           : MPEG Audio\nFormat version                   : Version 1\nFormat profile                   : Layer 3\nMode                             : Dual mono\nCodec ID                         : 55\nCodec ID/Hint                    : MP3\nDuration                         : 1h 27mn\nBit rate mode                    : Constant\nBit rate                         : 128 Kbps\nChannel(s)                       : 2 channels\nSampling rate                    : 44.1 KHz\nCompression mode                 : Lossy\nStream size                      : 79.8 MiB (11%)\nAlignment                        : Split accross interleaves\nInterleave, duration             : 40 ms (1.00 video frame)\nInterleave, preload duration     : 500 ms\nTitle                            : Audio\nWriting library                  : LAME3.92\n","torrent":{"xt":"urn:btih:107f2a9405f8da0d3e8dcdafb7b1861175832434","amp;dn":"Incorreggibili+Ninfomani+-+Nymphos+out+of+control","amp;tr":["udp%3A%2F%2Ftracker.openbittorrent.com%3A80","udp%3A%2F%2Fopen.demonii.com%3A1337","udp%3A%2F%2Ftracker.coppersurfer.tk%3A6969","udp%3A%2F%2Fexodus.desync.com%3A6969"],"infoHash":"107f2a9405f8da0d3e8dcdafb7b1861175832434","infoHashBuffer":{"type":"Buffer","data":[16,127,42,148,5,248,218,13,62,141,205,175,183,177,134,17,117,131,36,52]},"announce":[],"urlList":[]}}